<?xml version="1.0" standalone="no"?>
<!DOCTYPE svg PUBLIC "-//W3C//DTD SVG 20010904//EN"
 "http://www.w3.org/TR/2001/REC-SVG-20010904/DTD/svg10.dtd">
<svg version="1.0" xmlns="http://www.w3.org/2000/svg"
 width="724.000000pt" height="724.000000pt" viewBox="0 0 724.000000 724.000000"
 preserveAspectRatio="xMidYMid meet">

<g transform="translate(0.000000,724.000000) scale(0.100000,-0.100000)"
fill="#currentColor" stroke="none">
<path d="M4003 6733 c-18 -10 -62 -43 -98 -73 -37 -30 -75 -58 -84 -62 -11 -4
-40 4 -72 19 -77 37 -134 35 -189 -4 -148 -109 -272 -340 -332 -616 -19 -87
-22 -135 -22 -317 l-1 -215 -36 95 c-169 446 -514 1016 -633 1046 -36 9 -52
-1 -95 -57 -18 -24 -39 -45 -46 -47 -7 -2 -44 19 -82 47 -37 27 -80 53 -96 56
-67 17 -113 -37 -137 -160 -16 -80 -24 -92 -62 -100 -115 -23 -164 -57 -189
-130 -19 -55 -16 -259 5 -355 54 -249 186 -508 364 -716 36 -43 61 -75 56 -72
-5 4 -67 50 -139 103 -156 117 -347 244 -470 313 -288 162 -461 160 -425 -5 6
-25 8 -48 5 -52 -4 -3 -45 -9 -91 -12 -70 -6 -90 -11 -111 -30 -33 -32 -28
-70 25 -186 59 -127 59 -133 23 -196 -52 -90 -38 -156 66 -314 59 -90 129
-159 241 -234 59 -41 220 -127 263 -141 7 -2 1 -19 -15 -42 -33 -50 -35 -119
-5 -179 50 -98 209 -216 454 -337 171 -84 280 -123 427 -151 97 -18 135 -21
268 -16 161 6 219 17 337 64 l63 25 60 -40 c33 -23 69 -44 80 -47 26 -8 26 -8
-10 -166 -38 -165 -74 -376 -91 -529 -17 -147 -17 -591 -1 -735 50 -434 166
-867 347 -1290 81 -189 223 -472 241 -479 10 -4 24 0 33 8 13 14 3 40 -96 243
-261 535 -400 995 -459 1518 -31 282 -18 685 32 972 16 97 84 414 89 423 2 3
48 0 102 -7 107 -13 266 -26 354 -27 53 -1 59 -4 112 -52 244 -223 682 -452
898 -470 90 -8 144 5 221 52 l57 35 71 -22 c84 -25 132 -20 156 16 22 34 12
67 -36 119 -46 50 -116 89 -250 141 -52 20 -140 60 -195 89 -100 53 -307 184
-270 171 241 -86 358 -109 565 -109 284 1 511 60 624 164 23 21 66 48 96 60
64 24 87 48 96 98 9 50 15 56 105 104 84 45 112 69 124 106 5 18 -1 30 -33 60
-21 20 -51 45 -65 55 -15 10 -27 23 -27 29 0 6 27 36 60 68 90 86 79 136 -37
160 -84 18 -186 7 -368 -40 -356 -92 -426 -109 -565 -134 -162 -29 -365 -52
-545 -60 l-120 -5 130 28 c483 106 840 237 1030 378 143 107 292 282 331 390
23 66 18 99 -23 144 l-36 40 36 90 c21 52 37 107 37 130 0 33 -5 42 -31 58
-17 10 -60 22 -97 25 -37 4 -80 9 -96 12 l-28 6 6 69 c7 65 6 70 -19 95 -27
27 -51 28 -155 7 -23 -4 -32 0 -46 23 -10 15 -19 43 -20 62 -1 39 -40 82 -73
82 -24 0 -31 19 -31 86 0 91 -33 144 -89 144 -12 0 -64 -14 -117 -31 l-97 -31
-39 22 c-31 17 -49 21 -80 16 -110 -18 -300 -165 -512 -396 -67 -73 -69 -74
-62 -40 43 204 57 320 63 490 6 200 -7 312 -47 390 -29 57 -44 65 -144 70
l-91 5 -48 97 c-62 126 -101 151 -174 111z m122 -147 c60 -126 67 -131 173
-131 l86 0 19 -32 c45 -78 59 -309 32 -531 -32 -259 -80 -456 -126 -522 -138
-193 -230 -352 -321 -553 -33 -73 -64 -143 -69 -155 l-9 -24 -30 32 c-26 28
-35 32 -65 27 -49 -8 -95 19 -95 55 0 40 37 250 65 366 14 57 25 110 25 118 0
22 -30 16 -40 -8 -15 -37 -50 -202 -74 -346 l-22 -135 -32 -2 c-18 -2 -38 -8
-46 -14 -10 -9 -16 12 -30 112 -44 322 -48 679 -10 965 6 49 5 52 -15 52 -11
0 -21 -1 -21 -2 0 -2 -7 -66 -15 -143 -27 -253 -18 -607 21 -874 8 -57 13
-105 11 -107 -2 -2 -17 -6 -33 -10 -29 -6 -31 -3 -67 73 -124 265 -196 702
-168 1023 26 289 109 506 259 675 82 92 118 103 202 60 27 -14 62 -25 78 -25
31 0 86 33 137 80 48 45 105 79 121 73 8 -3 35 -47 59 -97z m-1825 -106 c92
-69 126 -65 183 19 31 48 35 50 54 36 47 -33 208 -260 305 -430 219 -385 417
-918 482 -1300 21 -121 21 -121 -14 -129 -19 -3 -34 -15 -42 -31 -19 -41 4
-73 -235 324 -84 140 -158 260 -164 268 -13 15 -29 8 -29 -12 0 -16 178 -319
302 -513 43 -68 78 -126 78 -128 0 -2 -6 -4 -13 -4 -15 0 -53 -33 -59 -52 -6
-17 -36 3 -163 107 -363 299 -673 728 -835 1158 -31 80 -49 102 -65 77 -9 -15
80 -233 156 -379 193 -372 515 -752 832 -979 85 -61 42 -45 -74 28 -253 159
-470 336 -654 533 -225 241 -352 455 -429 719 -49 170 -53 377 -8 437 19 25
24 28 124 56 70 19 84 38 108 140 10 41 25 86 34 100 16 24 18 24 44 11 15 -8
52 -33 82 -56z m3070 -536 c6 -14 10 -58 10 -99 0 -65 -4 -80 -31 -124 -26
-41 -41 -53 -88 -72 -164 -65 -361 -183 -526 -316 -194 -156 -504 -482 -671
-705 l-73 -98 -11 35 c-11 34 -10 36 45 98 129 142 245 351 329 595 44 126 50
138 120 220 180 213 408 412 515 452 l54 21 38 -27 39 -26 112 35 c62 20 116
36 121 36 4 1 12 -11 17 -25z m108 -226 c3 -15 -4 -18 -33 -18 -33 0 -35 2
-25 21 14 24 53 22 58 -3z m46 -113 c36 -38 71 -44 150 -25 22 5 43 7 46 5 4
-2 3 -30 -1 -61 -13 -99 14 -126 146 -139 89 -9 105 -14 105 -31 0 -9 -16 -54
-37 -101 -47 -109 -47 -133 1 -182 36 -37 37 -40 27 -78 -25 -91 -174 -271
-310 -374 -37 -27 -124 -78 -196 -114 -311 -154 -933 -306 -1240 -304 l-100 1
88 14 c175 27 569 141 815 236 56 22 102 43 102 48 0 4 -6 12 -12 18 -9 7 -30
3 -73 -14 -108 -45 -437 -152 -580 -190 -152 -40 -331 -75 -340 -66 -3 3 -5
13 -5 23 0 13 62 48 233 132 261 130 399 206 405 224 10 32 -34 18 -153 -48
-115 -64 -422 -217 -467 -232 -12 -4 -22 5 -38 39 -26 52 -30 43 80 158 255
269 575 521 913 720 90 53 121 86 80 86 -44 0 -428 -253 -634 -417 -74 -59
-213 -185 -309 -280 -96 -94 -176 -170 -179 -168 -6 7 126 178 231 300 126
146 366 386 481 482 200 166 451 307 639 357 80 22 96 20 132 -19z m-4070 -94
c162 -65 377 -202 727 -463 454 -338 798 -600 914 -694 l30 -25 -39 6 c-59 10
-271 89 -445 166 -85 37 -158 66 -163 63 -23 -15 1 -35 91 -77 131 -62 328
-140 440 -174 99 -30 119 -48 44 -38 -508 68 -1025 240 -1391 462 -51 31 -77
42 -84 35 -20 -20 0 -37 111 -101 312 -178 802 -349 1181 -411 69 -11 141 -20
160 -20 19 0 42 -5 50 -10 10 -6 -86 -10 -280 -10 -231 0 -304 3 -336 15 -50
17 -85 9 -151 -34 -26 -17 -50 -31 -55 -31 -14 0 -56 49 -101 115 -92 138
-123 150 -226 89 -58 -35 -62 -35 -128 -29 -161 17 -395 143 -540 292 -54 54
-84 96 -117 164 -26 50 -46 100 -46 111 0 11 14 45 31 75 40 69 37 107 -18
229 -57 126 -57 123 -27 134 14 6 52 10 84 10 108 0 134 25 117 111 -14 71 -6
83 49 75 25 -3 78 -19 118 -35z m2794 -362 c-30 -87 -194 -377 -206 -365 -8 9
201 396 213 396 2 0 -1 -14 -7 -31z m-558 -485 c25 -9 53 -23 63 -32 15 -13
23 -14 48 -5 28 11 30 10 43 -21 9 -21 25 -37 43 -44 22 -7 32 -18 36 -42 8
-39 41 -87 66 -95 11 -3 21 -19 25 -37 3 -17 11 -37 17 -45 18 -21 16 -104 -3
-143 -10 -19 -18 -42 -18 -51 0 -12 -6 -16 -20 -12 -13 4 -29 -4 -47 -24 -16
-16 -42 -35 -59 -42 -17 -7 -37 -23 -44 -35 -9 -19 -20 -23 -58 -23 -55 -1
-152 -16 -168 -26 -7 -4 -19 4 -28 19 -24 35 -56 45 -101 31 -35 -10 -38 -9
-57 16 -14 20 -28 27 -52 27 -37 0 -54 11 -85 57 -12 17 -36 37 -54 43 -17 6
-42 24 -55 40 -22 28 -22 30 -5 64 15 33 15 37 -2 76 -17 38 -17 41 0 60 9 10
20 34 24 52 5 24 16 37 46 53 25 12 48 35 60 58 19 35 22 37 55 32 28 -5 40
-2 54 14 15 16 22 18 42 9 19 -9 28 -8 42 5 14 13 29 16 63 11 34 -5 48 -2 58
10 16 19 15 19 71 0z m-1655 -322 c6 -4 37 -44 68 -88 106 -153 152 -173 243
-109 89 64 126 44 239 -130 40 -60 88 -124 106 -142 51 -48 168 -101 277 -124
53 -12 101 -25 106 -29 5 -5 -22 -18 -59 -29 -267 -83 -572 -42 -900 119 -345
169 -509 329 -439 428 28 40 68 54 125 44 64 -12 107 -2 167 37 51 34 52 34
67 23z m4063 -1 c23 -5 45 -11 49 -14 3 -4 -20 -30 -51 -60 -47 -44 -56 -58
-56 -88 0 -43 19 -70 76 -109 24 -17 42 -35 39 -40 -3 -5 -41 -28 -85 -51 -97
-52 -118 -73 -134 -134 -11 -45 -14 -48 -70 -71 -32 -13 -78 -41 -101 -63 -52
-48 -99 -73 -190 -100 -118 -35 -240 -51 -389 -51 -360 0 -600 90 -1063 398
-133 88 -158 112 -114 112 9 0 22 5 27 10 8 8 34 5 85 -9 124 -34 310 -69 457
-86 161 -19 217 -17 217 5 0 11 -18 17 -70 22 -198 20 -283 32 -415 58 -80 16
-163 36 -185 45 -30 11 -33 14 -10 9 121 -24 404 -30 645 -14 291 20 519 60
865 151 336 89 383 97 473 80z m-2934 -200 c17 -18 15 -19 -51 -30 -37 -7
-126 -19 -198 -29 -101 -13 -130 -21 -130 -32 0 -21 105 -17 270 11 199 33
203 34 185 17 -46 -45 -460 -194 -491 -177 -20 10 -74 83 -117 156 -17 29 -38
64 -48 78 l-16 25 289 0 c272 0 291 -1 307 -19z m238 -153 c29 -31 40 -33 87
-17 30 11 34 9 60 -21 28 -34 42 -36 107 -15 18 6 26 -2 52 -48 17 -31 63
-103 102 -162 38 -59 70 -113 70 -120 0 -24 -38 -27 -82 -7 -41 18 -72 47
-167 162 -71 85 -110 93 -233 48 -61 -21 -78 -43 -54 -67 14 -13 22 -13 78 7
107 37 109 36 216 -95 49 -60 54 -58 -86 -43 -150 17 -207 35 -303 95 -101 64
-123 73 -281 109 -65 15 -118 31 -118 34 1 4 53 24 118 45 64 22 162 60 217
87 87 41 106 47 145 42 32 -4 53 -14 72 -34z m635 -60 c255 -198 637 -453 827
-553 56 -30 148 -72 206 -95 123 -49 174 -77 214 -118 57 -61 3 -60 -143 3
-108 46 -164 61 -294 80 -125 18 -211 47 -352 117 -256 127 -506 333 -648 533
l-39 55 26 0 c16 0 32 10 46 30 12 17 28 30 36 30 8 0 63 -37 121 -82z m-203
-92 c219 -300 660 -598 956 -646 142 -22 215 -38 250 -52 l35 -15 -35 -21
c-85 -53 -194 -49 -366 13 -177 63 -501 258 -661 397 -58 50 -73 68 -73 91 0
36 -12 58 -110 208 -44 67 -80 127 -79 133 0 6 6 2 12 -8 7 -10 39 -55 71
-100z"/>
<path d="M3583 4594 c-3 -8 1 -22 9 -30 13 -14 17 -14 31 1 9 8 14 22 11 30
-8 20 -43 19 -51 -1z"/>
<path d="M3314 4555 c-7 -18 12 -45 32 -45 15 0 28 35 19 50 -9 15 -45 12 -51
-5z"/>
<path d="M3484 4555 c-4 -9 0 -23 8 -31 13 -14 17 -14 32 1 9 10 15 22 13 29
-6 18 -46 19 -53 1z"/>
<path d="M3725 4560 c-9 -15 4 -50 19 -50 20 0 37 25 30 44 -7 18 -39 22 -49
6z"/>
<path d="M3392 4481 c-23 -14 -10 -46 21 -49 35 -4 49 25 22 44 -22 16 -25 17
-43 5z"/>
<path d="M3236 4439 c-27 -40 7 -64 55 -39 23 13 25 46 3 54 -27 11 -42 7 -58
-15z"/>
<path d="M3882 4428 c-16 -16 3 -48 29 -48 25 0 35 25 19 45 -15 18 -32 19
-48 3z"/>
<path d="M3784 4376 c-9 -24 4 -48 23 -44 12 2 18 12 18 28 0 29 -32 41 -41
16z"/>
<path d="M3270 4365 c-18 -21 -5 -45 24 -45 26 0 47 25 39 48 -6 17 -48 15
-63 -3z"/>
<path d="M3473 4364 c-3 -8 2 -23 11 -32 15 -15 17 -15 32 0 21 21 11 48 -16
48 -11 0 -23 -7 -27 -16z"/>
<path d="M3653 4324 c-3 -8 1 -22 9 -30 12 -12 17 -12 33 -1 23 17 14 47 -15
47 -11 0 -23 -7 -27 -16z"/>
<path d="M3937 4295 c-21 -20 -21 -26 -3 -51 12 -15 19 -17 32 -8 26 15 27 28
6 54 -17 21 -19 21 -35 5z"/>
<path d="M3255 4284 c-22 -23 -15 -58 12 -62 17 -3 24 3 29 22 12 49 -10 71
-41 40z"/>
<path d="M3743 4263 c-18 -7 -16 -52 2 -59 19 -8 45 13 45 36 0 14 -23 34 -33
29 -1 0 -8 -3 -14 -6z"/>
<path d="M3432 4248 c-17 -17 -15 -53 4 -69 14 -11 18 -10 30 6 8 10 14 26 14
35 0 16 -18 40 -30 40 -3 0 -11 -5 -18 -12z"/>
<path d="M3580 4214 c-21 -55 -7 -109 26 -102 23 4 39 73 25 106 -14 30 -39
28 -51 -4z"/>
<path d="M3320 4209 c-13 -23 1 -49 26 -49 18 0 35 34 28 54 -9 23 -41 20 -54
-5z"/>
<path d="M3922 4201 c-19 -12 -11 -45 12 -49 24 -5 37 17 25 40 -11 20 -18 22
-37 9z"/>
<path d="M3470 4135 c-17 -21 -8 -50 17 -53 26 -4 41 31 23 53 -16 19 -24 19
-40 0z"/>
<path d="M3816 4135 c-6 -16 18 -45 38 -45 22 0 36 22 25 42 -12 22 -55 24
-63 3z"/>
<path d="M3737 4133 c-13 -12 -7 -41 9 -47 22 -9 34 1 34 30 0 17 -6 24 -18
24 -10 0 -22 -3 -25 -7z"/>
<path d="M3656 4115 c-21 -56 11 -110 41 -69 21 29 13 78 -13 82 -13 2 -24 -4
-28 -13z"/>
</g>
</svg>
